<?xml version="1.0" encoding="utf-8"?>
<!-- Generator: Adobe Illustrator 23.0.1, SVG Export Plug-In . SVG Version: 6.00 Build 0)  -->
<svg version="1.1" xmlns="http://www.w3.org/2000/svg" xmlns:xlink="http://www.w3.org/1999/xlink" x="0px" y="0px"
	 viewBox="0 0 800 600" style="enable-background:new 0 0 800 600;" xml:space="preserve">
<style type="text/css">
	.st0{fill:none;stroke:#000000;stroke-width:0.5;stroke-linecap:round;stroke-linejoin:round;}
	.st1{font-family:'Roboto-Regular';}
	.st2{font-size:14px;}
</style>
<g id="Ghana">
	<path class="st0" d="M472.466,32.37l0.619,1.402l1.38,1.281l1.691,0.944l1.53,0.394l1.524-0.158l2.824-0.751l1.565-0.026
		l2.777,1.067l1.255,1.984l0.266,2.624l-0.236,3.002l-0.198,1.062l-0.582,0.582l-0.729,0.466l-0.666,0.703l-0.404,0.797l-1.801,8.51
		l0.065,0.821l0.426,1.665l-0.155,0.899l-0.718,0.689l-1.698,1.157l-1.174,1.499l-0.632,1.477L478.953,68l-0.286,1.199l-0.037,0.009
		l-1.603,0.391l-5.266,2.725l-4.023,0.328l-8.498,1.813l-1.088,0.361l-0.628,0.42l-0.69,0.085l-3.841,1.721l-2.031,0.551
		l-0.561,0.02l-1.505-0.131l-0.475-0.105l-0.372-0.203l-0.606-0.612l-0.348-0.289l-0.561-0.171l-0.413,0.098l-0.338,0.243
		l-0.254,0.337l-0.198,0.387l-0.168,0.426l-0.503,2.593l-0.178,0.42l-0.29,0.433l-0.563,0.56l-0.499,0.223l-0.484,0.046
		l-0.361-0.177l-0.4-0.262l-0.522-0.179l-0.918-0.013l-0.552,0.153l-0.511,0.282l-1.049,0.84l-0.512,0.197l-0.481,0.039
		l-1.238-0.433l-2.717,0.02l-0.542,0.19l-0.391,0.275l-0.533,0.807l-0.406,0.422l-0.752,0.512l-0.492,0.026l-0.408-0.19
		l-0.322-0.262l-0.451-0.111l-0.722,0.564l-0.355,0.053l-0.303-0.177l-0.155-0.374l0.034-0.426l0.168-0.383l0.86-0.885l0.258-0.335
		l0.17-0.413l0.135-0.459l0.077-0.481l0.013-0.518l-0.086-0.479l-0.14-0.44l-0.232-0.348L428.5,78.64l-0.346-0.236l-0.307-0.275
		l-0.202-0.348l-0.071-0.426l0.073-0.38l0.178-0.315l0.275-0.278l0.176-0.361l0.039-0.446l-0.116-0.413l-0.215-0.374l-0.494-0.282
		l-0.714-0.212l-4.993-0.118l-0.845,0.14l-0.529,0.276l-0.153,0.446l-0.187,1.575l-0.181,0.422l-0.385,0.374l-0.52,0.335
		l-0.913,0.367l-0.55,0.289l-0.365,0.341l-0.116,0.448l-0.086,0.925l-0.127,0.367l-0.181,0.262l-0.38,0.439l-0.226,0.33
		l-0.303,0.866l-0.183,0.407l-0.232,0.354l-3.29,2.993l-0.007,0.009l-0.402,0.334l-0.247,0.289l-0.907,0.695l-0.877,0.446
		l-0.546,0.079l-0.329-0.17l-0.006-0.354l0.193-0.315l0.995-0.99l0.015-0.022l0.019-0.013l0.413-0.459l0.181-0.321l-0.112-0.308
		l-0.507-0.216l-1.259,0.039l-0.748-0.079l-0.529-0.184l-0.348-0.243l-0.38-0.203l-0.486-0.105l-1.062-0.125l-1.116-0.315
		l-0.901-0.114l-0.621,0.039l-0.961,0.236l-8.724,3.251l-0.696,0.446l-0.305,0.275l-0.284,0.308l-0.238,0.341l-0.368,0.809
		l-0.361,1.41l-0.385,0.527l-0.638,0.544l-2.876,1.41l-0.593,0.573l-0.458,0.695l-0.17,0.406l-0.105,0.446l-0.024,0.468l0.026,0.492
		l0.608,2.847l0.097,1.035l-0.013,0.546l-0.077,0.511l-0.123,0.465l-0.363,0.505l-0.537,0.472l-1.12,0.638l-0.52-0.026l-0.372-0.229
		l-0.159-0.422l-0.196-0.374l-0.389-0.229l-0.555-0.059l-1.328,0.053l-0.509-0.079l-0.419-0.164l-1.483-0.826l-0.337-0.256
		l-0.374-0.199l-0.445-0.122l-0.477-0.061l-0.441-0.124l-0.316-0.262l-0.202-0.374l-0.314-0.832l-0.279-0.308l-0.327-0.249
		l-0.387-0.205l-0.35-0.236l-0.284-0.288l-0.221-0.36l-0.275-0.793l-0.135-0.756l0.578-0.538l0.097-0.479l0.131-1.385l-0.202-1.711
		l-0.436-1.49l-0.359-0.715l-0.391-0.466l-0.787-0.363l-0.46-0.052l-0.41,0.088l-0.355,0.21l-0.793,0.938l-0.273,0.236l-0.234,0.105
		h-0.191l-0.196-0.138l-0.849-0.774l-0.709-0.402l-0.643-0.492l-0.282-0.302l-0.2-0.374l-0.271-0.892l-0.071-0.485l0.159-0.789
		l0.039-0.544l-0.217-0.571l-0.303-0.295l-1.163-0.599l-0.458-0.111l-0.986-0.118l-0.398-0.164l-0.264-0.256l-0.346-0.459
		l-0.239-0.249l-0.303-0.229l-0.406-0.171l-0.316-0.265l-0.2-0.38l-0.155-0.426l-0.189-0.393l-0.273-0.308l-0.391-0.184
		l-0.514-0.059l-0.499-0.02l-0.492-0.085l-0.331-0.236l-0.245-0.343l-0.314-0.84l-0.2-0.381l-0.168-0.413l-0.122-0.446l-0.477-2.989
		l-0.153-0.433l-0.359-0.768l-0.082-0.577l-0.028-0.776l0.421-2.397l0.245-0.827l0.303-0.689l0.774-0.901l0.555-0.433l0.499-0.289
		l0.799-0.368l0.458-0.341l1.182-1.407l1.154-1.044l0.127-0.35l0.071-0.499l0.039-1.083l0.155-0.737l0.61-0.834l1.251-0.912
		l0.284-0.302l0.378-0.212l0.439-0.151l0.391-0.341l0.301-0.565l0.034-3.537l-0.12-0.486l-0.041-0.479l0.112-0.466l0.327-0.624
		l0.181-0.692l0.032-1.143l-0.148-1.309l0.438-1.662l1.637-3.663l0.834,0.327l2.762,1.083l2.085,0.385l10.583,0.105l10.024,0.096
		l0.735-1.29l2.36-0.368l11.469,0.915l0.701,0.142l0.632,0.442l0.58,1.145l0.426,0.271l0.868-0.035l-0.554,1.158l1.449-0.204
		l1.861-2.058l1.78-0.3l0.477-0.589l0.49-0.206l0.469,0.188l0.43,0.606v0.022l9.479,0.173l0.584,0.011l0.112,0.957l0.37,0.079
		l0.58-0.215l0.774,0.07l0.494,0.593l-0.357,0.679l-0.623,0.672l-0.249,0.591l3.993,3.866l1.457-0.904l0.842-1.913l0.606-2.08
		l0.77-1.412l1.195-0.451l1.728-0.186l3.241,0.112l0.292-0.094l0.271-0.144l0.249-0.188l0.206-0.215V44.12l0.782-0.97l2.188-1.044
		l0.984-0.804l0.451-0.898l0.185-1.923l0.387-1.233l1.595-2.037h1.608l1.578,1.277l1.496,1.796l4.17-3.064l1.055-1.032l0.651-1.259
		l-0.187-0.765l-0.327-0.795L461.189,30L472.466,32.37z"/>
	<path class="st0" d="M478.667,69.199l-0.51,2.137l-0.054,1.765l0.849,1.75l0.731,0.612l0.913,0.44l0.991,0.258l1.922,0.249
		l0.593,0.398l0.52,0.509l0.752,0.514l2.601,0.866l0.757,0.466l0.658,0.792l0.971,1.88l0.686,0.833l4.402,2.781l1.318,1.408
		l4.238,7.944l0.241,0.297l0.636-0.065l0.353-0.498l0.224-0.553l0.219-0.245l2.207,0.872l0.8,0.114l0.943-0.247l0.78-0.385
		l0.754-0.24l0.851,0.197l0.821,0.828l0.036,0.933l-0.277,0.896l-0.116,0.723l0.933,1.534l1.416,1.287l0.875,1.348l-0.731,1.711
		l1.161-0.013l3.647-0.612l0.797,0.384l1.698,1.413l-2.042,1.529l-0.396,1.295l-0.239,1.387l-0.602,1.134l0.138,2.846l-0.436,5.985
		l0.815,2.183l1.055,0.683l0.916,0.223l0.671,0.557l0.249,1.709l-0.297,1.4l-0.055,0.259l-0.929,0.244l-1.285-0.214l-1.457,0.279
		l0.494,0.831l-0.049,0.537l-0.282,0.524l-0.163,0.781l0.138,0.567l0.995,1.999l0.565,1.669l-0.051,0.692l-0.58,0.519l-1.066,1.159
		l-0.671,1.281l-0.17,1.178l0.376,3.384l-0.026,0.96l-1.784,6.561l0.12,1.57l0.436,0.909l0.595,0.659l0.555,0.84l0.387,1.241
		l0.189,1.535l-0.232,1.476l-0.868,1.04l-1.492,0.188l-1.397-0.778l-2.216-2.342l-1.191,2.398l0.06,2.466l1.326,1.768l2.592,0.279
		l3.374-0.863l1.646,0.318l0.714,1.748l-0.576,1.162l-1.348,0.384l-1.535-0.262l-1.141-0.754l-1.487,0.977l-1.999,0.118
		l-4.187-0.471l-0.204,0.54l-0.389,2.376l0.028,0.538l0.208,0.242l0.608,0.534l0.823,0.582l0.864,0.375l2.121-0.401l1.176,0.061
		l0.731,0.913l-0.318,0.874l-1.064,0.737l-1.296,0.508l-3.467,0.706l-0.009,1.201l0.585,1.347l-0.679,0.963l0.378,1.129l1.541,0.17
		l1.547-0.312l3.804-1.336l0.632-0.536l0.327-0.717l0.254-1.706l0.415-0.667l1.262-0.554l1.87-0.336l3.346-0.187l1.562,0.257
		l4.415,1.617l0.533,0.75l0.146,0.83l-0.189,0.865l-0.55,0.943l-0.017,0.083l0.017,0.083l0.06,0.087l2.476,0.847l1.505,1.322
		l0.516,1.978l-0.774,4.274l-0.138,2.47l-0.344,1.061l-0.843,0.873l-0.937,0.549l-0.679,0.808l-0.077,1.661l1.032,3.016l0.026,1.343
		l-1.006,1.72l-1.883,1.687l-0.526,0.812l0.009,1.317l-0.438,2.714l-1.408,2.616l-0.855,2.577l1.116,2.613h0.017v0.009l4.013,6.841
		l1.04,4.116l-1.83,2.64l-0.009,0.014l-0.421,1.051l-0.12,1.311l-0.292,1.111l-0.916,0.441l-1.079-0.174l-0.84-0.259l-0.772-0.109
		l-0.877,0.294l0.447,0.331l-0.555,1.407l-0.873,0.972l-0.89-1.892l-0.984-0.383l-1.049,0.196l-0.565,0.798l0.184,1.076h-0.031
		h-0.03l-3.241-0.45l-0.516,0.033l-2.648,0.537L509.933,233h-0.516l-0.516-0.078l-0.439-0.152l-1.939-1.116l-0.413-0.15
		l-0.464-0.085l-0.451,0.02l-0.851,0.196l-2.038,0.848l-0.297,0.222l-0.288,0.315l-0.155,0.555l-0.052,0.457l0.322,0.359
		l0.249,0.359l0.142,0.413l-0.013,0.483l-0.378,0.665l-0.542,1.457l-0.684,1.331l-1.663,2.155l-0.335,0.698l-0.142,0.628l0.09,0.47
		l0.142,0.443l0.18,0.365l0.464,0.693l0.916,0.822l0.284,0.3l0.193,0.378l0.103,0.45l-0.103,0.502l-0.297,0.413l-0.722,0.274h-0.542
		l-0.464-0.143l-0.748-0.417l-0.413-0.117l-0.481,0.157l-0.464,0.372l-0.89,1.376l-0.619,1.287l-0.903,2.623l-0.116,0.456
		l-0.052,0.482v0.458l0.116,0.437l0.232,0.333l0.322,0.248l1.573,0.756l0.31,0.287l0.206,0.367l0.052,0.443l-0.219,0.424l-0.4,0.345
		l-0.851,0.287l-0.593,0.143l-0.516,0.263l-0.335,0.358l-0.18,0.685l0.052,0.502l0.31,0.863l0.168,0.919v0.508l-0.168,0.928
		l0.052,0.424l0.193,0.28l0.322,0.248l0.387,0.163l0.903,0.261l0.941,0.117l0.417-0.013l1.947-0.28l1.818-0.463l2.506-0.306
		l0.529,0.039l0.451,0.124l0.413,0.176l0.361,0.228l0.284,0.3l0.89,1.377l0.172,0.424l0.116,0.971l-0.039,0.502l-0.077,0.458
		l-0.327,0.332l-0.529,0.235l-2.579,0.111l-0.529,0.098l-0.426,0.261l-0.245,0.547l-0.043,0.508l0.546,3.419l0.193,0.352
		l0.064,0.371l0.013,0.45l-0.116,0.484l-0.778,0.476l-1.354,0.365l-3.344,0.384l-1.457,0.013l-0.928-0.091l-1.006-0.743l-1.81-1.768
		l-0.761-0.938l-1.186-1.155l-2.919-1.879l-1.33-0.58l-1.769-0.573l-2.033-0.371l-1.715,0.039l-3.701,1.297l-0.653,0.38l-0.849,0.6
		l-1.24,1.134l-0.393,0.621l-0.142,0.586l0.077,0.463l0.007,0.489l-0.077,0.463l-0.894,1.481l-0.176,0.456l-0.251,0.365
		l-0.656,0.208l-0.477,0.263l-0.357,0.612l-0.524,0.547l-0.662,0.436l-1.41,0.28l-0.806,0.02l-0.634-0.091l-0.432-0.137
		l-1.984-0.925l-0.443-0.143l-0.542-0.013l-2.897,0.971l-0.763,0.091h-0.634l-0.92-0.195l-0.49,0.248l-0.55,0.547l-1.659,3.639
		l-1.76,1.774l-0.885,0.3l-1.494,0.085l-3.4-0.521l-1.539-0.536l-4.621-2.705l-8.617-6.997l-0.245-0.332l-0.277-0.306l-0.254-0.326
		l-0.284-0.293l-0.959-1.312l-1.367-1.447l-0.636-0.504l-0.391-0.189l-0.46-0.143l-0.535-0.091l-1.879,0.124l-1.855,0.358
		l-0.84,0.052l-1.055-0.065l-1.601-0.267l-1.038-0.059l-0.471,0.046l-0.374,0.065l-0.262,0.098l-0.249,0.143l-0.277,0.208
		l-0.544,0.595l-1.042,1.382l-0.55,0.595l-0.602,0.541l-0.357,0.208l-0.383,0.182l-1.212,0.384l-0.795,0.365l-0.754,0.439
		l-0.699,0.567l-0.245,0.267l-0.239,0.326l-0.209,0.352l-1.317,3.503l-0.406,0.749l-0.533,0.632l-1.225,1.136l-0.666,0.469
		l-0.393,0.169l-2.659,0.645l-0.761,0.306l-0.37,0.221l-0.31,0.276l-0.251,0.371l-0.196,0.371l-0.155,0.436l-0.101,0.475
		l-0.064,0.528v0.543l0.165,0.925l0.344,0.742l0.885,1.422l0.322,0.749l0.116,0.426l0.084,0.449l0.028,2.027l-0.071,0.534
		l-0.131,0.488l-0.254,0.404l-0.363,0.299l-0.4,0.195l-0.34,0.217l-0.26,0.202l-0.153,0.182l-0.716,1.406l-0.499,0.666l-0.419,0.716
		l-0.273,0.215l-0.41-0.085l-0.625-0.449l-0.559-0.312l-0.858-0.237l-0.595-0.345l-0.471-0.762l-8.857-24.886l-0.877-1.505
		l-1.137-1.488l-2.278-1.499l-0.851-0.797l-0.434-0.6l0.11-0.43l0.185-0.391l0.224-0.354l0.522-0.671l0.58-0.573l0.329-0.248
		l0.595-0.554l0.251-0.287l0.258-0.348l0.193-0.378l0.142-0.45l0.073-0.502l0.056-2.76l0.09-0.491l0.129-0.443l0.4-0.776l0.49-0.652
		l4.258-3.857l0.492-0.593l0.868-1.626l0.301-0.854l0.073-0.469l-0.002-0.459l-0.041-0.404l-0.327-1.35l-1.221-2.809l-0.4-1.861
		l-0.451-1.278l-0.439-0.32l-0.705-0.202h-1.767l-1.266-0.111l-1.782-0.359l-1.431-0.465l-0.707-0.372l-4.146-2.794l-1.221-1.024
		l-0.754-0.824l-0.322-0.261l-0.578-0.574l-0.327-0.254l-0.77-0.372l-0.95-0.248l-1.03-0.061l-4.466,0.172l-2.035,0.287l-1.35,0.881
		l-0.305,0.281l-0.264,0.32l-0.221,0.365l-0.18,0.407l-0.123,0.437l-0.477,2.468l-0.189,0.404l-0.269,0.307l-0.335,0.254
		l-0.722,0.411l-1.595,0.694l-0.95,0.215l-2.038,0.209l-0.84-0.039l-4.933-0.974l-0.655,0.009l-1.03,0.293l-0.58,0.267l-0.436,0.326
		l-0.232,0.333l-0.191,0.391l-0.275,0.863l-0.211,0.404l-0.254,0.313l-0.587,0.5l-1.064,0.276l-2.442,1.091l-6.199-1.985
		l-3.392,1.47l-1.083,1.43l-0.701,1.639l-0.374,1.761l-0.112,1.8l0.232,5.055l-0.232,1.575l-0.353,0.98l-0.451,0.821l-1.159,1.382
		l-0.417,0.799l0.157,0.739l0.365,0.684l0.204,0.65l0.161,1.543l0.462,1.434l0.698,1.175l0.898,0.754l3.16,0.53l3.185-0.263
		l2.59,0.606l1.391,3.143l0.056,1.512l-0.29,1.49l-0.834,1.138l-1.565,0.452l-1.79-0.397l-3.319-1.638l-2.016-0.208l-1.724,0.838
		l-1.367,1.566l-1.03,1.509l-0.707,0.677l-1.369,2.295l-0.531,0.536l-0.348,0.23l-7.927,1.633l-3.619,0.063l-3.009-0.74
		l-1.442-1.379l-2.147-3.622l-2.547-1.333l-2.347-2.934l-1.174-1.112l-1.268-0.712l-1.107-0.808l-0.785-1.121l-0.66-5.274
		l-0.778-2.992l-1.002-1.847l-0.133-0.763l-0.355-0.704l-1.562-0.511l-0.355-0.535l-0.52-1.252l-1.008-1.254l-0.673-1.367
		l0.496-1.582l-1.502-2.93l-0.2-0.856l-0.451-0.715l-1.988-1.217l-0.453-0.913l-0.709-1.915l-3.123-2.426l-2.414-4.59l-1.137-1.148
		l-0.342-0.135l-0.434-0.026l-0.344,0.057l-0.069,0.104l-3.349-3.651l-1.76-0.946l-0.643-0.13l-0.251-0.135l-0.243-0.361
		l-0.499,0.265l-0.752,0.352l-0.018-0.03l-0.403-0.661l0.215-1.072l0.615-0.559l0.881-0.492l0.09-1.151l-1.694-5.873l-0.103-1.447
		l-0.189-0.724l-0.464-0.2l-0.559-0.083l-0.494-0.379l-1.298-3.951l-0.086-1.721l-0.537-1.354l-2.102-1.125l-2.102-0.475
		l-2.132-0.104l-1.152-0.191l-0.653-0.459l-0.533-0.557l-0.812-0.464l0.782-1.191l0.344-1.321l0.159-4.214l0.348-0.701l1.771-1.829
		l1.449-2.985l0.971-1.529l2.639-1.389l0.993-1.603l0.112-1.601l-1.307-0.725l-1.453-0.322l-1.178-0.869l-0.653-1.3l0.138-1.59
		l0.855-1.124l1.135-0.529l0.989-0.63l0.426-1.436v-2.274l-0.413-1.414l-0.107-0.656l0.34-2.693l-0.09-1.201l-1.126-1.434l-3-3.807
		l-2.979-2.731l-0.43-0.867l-0.146-1.373l0.129-1.358l0.413-1.38l0.714-1.236l1.062-0.922l-0.27-0.21l9.415-1.296l0.591-0.236
		l0.692-0.464l0.69-0.794l0.393-0.549l0.477-0.818l0.251-0.34l0.4-0.294l0.537-0.262l1.509-0.353l0.576-0.231l0.436-0.34
		l0.421-0.693l0.516-1.566l0.2-0.392l0.458-0.674l0.312-0.281l0.501-0.301l0.671-0.303l1.281-0.366l1.242-0.229l4.142-0.059
		l0.997-0.151l7.705-2.397l0.473-0.052l7.389,0.55l0.509-0.052l2.682-0.792l0.986-0.144l1.118-0.026l2.197,0.17l0.976,0.222
		l2.02,0.275l3.151-0.111l10.828-2.417l5.395,0.347l1.053-0.092l1.33-0.255h0.32l4.64,0.596l2.02-0.059l0.509-0.281l0.49-0.478
		l0.692-1.198l0.535-0.683l0.759-0.55l1.939-0.583l0.4-0.196l0.301-0.349l0.271-0.543l0.168-0.929l0.314-0.923l0.122-0.702
		l0.026-0.576l-0.082-0.497l-0.135-0.441l-0.688-1.034l-0.125-0.393l-0.03-0.432l0.032-0.432l-0.116-1.436l0.062-0.491l0.335-0.899
		l0.002-0.007l0.174-0.386l0.254-0.36l0.38-0.327l0.677-0.327l0.535-0.144l1.111-0.642l0.46-0.022l0.499,0.035l0.473,0.096
		l0.501-0.013l0.443-0.183l0.29-0.354l0.084-0.661l-0.245-0.34l-0.4-0.236l-1.395-0.347l-0.219-0.209l0.09-0.258l0.522-0.196
		l1.04-0.177l0.406-0.124l0.408-0.078l0.415,0.078l0.815,0.314l0.505,0.065l0.49,0.013l0.398-0.026l0.363-0.105l1.06-0.55
		l0.881-0.327l0.331-0.295l0.213-0.491l-0.344-0.611l-0.63-0.681l-6.34-5.657l-0.52-0.618l0.019-0.55l0.245-0.576l1.348-2.459
		l0.183-0.576l0.09-0.507l0.213-3.278l0.213-0.996l0.161-0.454l0.464-0.898l0.8-1.121l1.032-1.057l3.336-2.48l1.174-1.167
		l0.514-0.677l1.653-3.142l1.116-1.451l0.297-0.249l0.389-0.223l0.619-0.177l0.572-0.065l0.567-0.013l1.115,0.118l1.786,0.715
		l3.007,1.576l2.678,0.859l0.135,0.756l0.275,0.793l0.221,0.36l0.284,0.288l0.35,0.236l0.387,0.205l0.327,0.249l0.279,0.308
		l0.314,0.832l0.202,0.374l0.316,0.262l0.441,0.124l0.477,0.061l0.445,0.122l0.374,0.199l0.337,0.256l1.483,0.826l0.419,0.164
		l0.509,0.079l1.328-0.053l0.555,0.059l0.389,0.229l0.196,0.374l0.159,0.422l0.372,0.229l0.52,0.026l1.12-0.638l0.537-0.472
		l0.363-0.505l0.123-0.465l0.077-0.511l0.013-0.546l-0.097-1.035l-0.608-2.847l-0.026-0.492l0.024-0.468l0.105-0.446l0.17-0.406
		l0.458-0.695l0.593-0.573l2.876-1.41l0.638-0.544l0.385-0.527l0.361-1.41l0.368-0.809l0.238-0.341l0.284-0.308l0.305-0.275
		l0.696-0.446l8.724-3.251l0.961-0.236l0.621-0.039l0.901,0.114l1.116,0.315l1.062,0.125l0.486,0.105l0.38,0.203l0.348,0.243
		l0.529,0.184l0.748,0.079l1.259-0.039l0.507,0.216l0.112,0.308l-0.181,0.321l-0.413,0.459l-0.019,0.013l-0.015,0.022l-0.995,0.99
		l-0.193,0.315l0.006,0.354l0.329,0.17l0.546-0.079l0.877-0.446l0.907-0.695l0.247-0.289l0.402-0.334l0.007-0.009l3.29-2.993
		l0.232-0.354l0.183-0.407l0.303-0.866l0.226-0.33l0.38-0.439l0.181-0.262l0.127-0.367l0.086-0.925l0.116-0.448l0.365-0.341
		l0.55-0.289l0.913-0.367l0.52-0.335l0.385-0.374l0.181-0.422l0.187-1.575l0.153-0.446l0.529-0.276l0.845-0.14l4.993,0.118
		l0.714,0.212l0.494,0.282l0.215,0.374l0.116,0.413l-0.039,0.446l-0.176,0.361l-0.275,0.278l-0.178,0.315l-0.073,0.38l0.071,0.426
		l0.202,0.348l0.307,0.275l0.346,0.236l0.312,0.271l0.232,0.348l0.14,0.44l0.086,0.479l-0.013,0.518l-0.077,0.481l-0.135,0.459
		l-0.17,0.413l-0.258,0.335l-0.86,0.885l-0.168,0.383l-0.034,0.426l0.155,0.374l0.303,0.177l0.355-0.053l0.722-0.564l0.451,0.111
		l0.322,0.262l0.408,0.19l0.492-0.026l0.752-0.512l0.406-0.422l0.533-0.807l0.391-0.275l0.542-0.19l2.717-0.02l1.238,0.433
		l0.481-0.039l0.512-0.197l1.049-0.84l0.511-0.282l0.552-0.153l0.918,0.013l0.522,0.179l0.4,0.262l0.361,0.177l0.484-0.046
		l0.499-0.223l0.563-0.56l0.29-0.433l0.178-0.42l0.503-2.593l0.168-0.426l0.198-0.387l0.254-0.337l0.338-0.243l0.413-0.098
		l0.561,0.171l0.348,0.289l0.606,0.612l0.372,0.203l0.475,0.105l1.505,0.131l0.561-0.02l2.031-0.551l3.841-1.721l0.69-0.085
		l0.628-0.42l1.088-0.361l8.498-1.813l4.023-0.328l5.266-2.725l1.603-0.391L478.667,69.199z"/>
	<path class="st0" d="M536.417,305.837l0.06,0.405l-0.069,5.029l0.756,4.799l-0.18,4.39l0.232,1.64l-2.407-0.408l-1.066,1.709
		l-0.258,2.602l0.026,2.281l-0.473,1.128l-1.126,0.581l-1.333,0.364l-1.092,0.49l-0.842,0.824l-0.516,0.898l-0.301,1.032
		l-0.318,4.874l0.413,4.132l1.341,3.693l2.622,2.328l1.513,0.208l1.651-0.299l3.061-1.136l0.55,0.733l1.333,5.5l-0.103,1.816
		l-1.109,3.077l-0.774,3.891l-2.003,5.026l-0.284,3.284l0.37,3.773l-0.06,3.647l-1.591,2.884l-1.075,0.598l-3.508,0.918
		l-1.221,0.091l-1.212,0.377l0.954,1.282l2.364,1.836l0.98,1.771l-0.198,1.411l-1.754,2.94l-0.559,1.762l0.266,0.801l0.8,0.478
		l1.014,0.784l2.407,4.496l0.55,0.736l1.427,0.303l1.453,0.803l1.212,1.154l0.705,1.353l0.086,1.359l-0.722,4.228l0.464,1.75
		l1.092,1.002l1.169,0.863l0.731,1.331l0.782,0.078l2.321-0.074l0.757,0.156l1.066,1.045l-0.052,0.781l-0.585,0.785l-0.524,1.067
		l-0.033,0.507l-0.113,1.721l0.516,2.055l0.997,1.988l1.315,2.024l1.754,1.804l4.109,2.033l2.089,1.326l2.708,3.272l1.075,0.815
		l1.702,0.458l6.345,0.026l2.175,6.707l1.29,1.851l0.662,0.484l0.619,0.257l0.628,0.342l0.636,0.733l1.092,1.697l0.894,1.04
		l1.143,0.586l6.886,0.787l0.98,1.327l-0.214,2.941l-0.047,0.014l-0.535,0.198l-3.771,2.035l-2.85,2.226l-4.224,4.547l-0.968,1.463
		l-2.051,4.091l-0.386,1.637l-0.122,1.725l-0.86,3.906l-0.724,1.555l-2.64,2.48l-3.364,1.17l-15.881,1.81l-4.152-0.303l0.005-0.004
		l1.758-1.201l1.664-0.499l0.258-0.311l0.232-0.475l-0.142-0.577l-0.245-0.408l-0.284-0.311l-0.322-0.259l-0.684-0.473l-1.191-0.592
		l-1.793-0.694l-1.161-0.732l-0.929-0.702l-0.933-1.16l-2.927-8.012l-0.838-0.89l-0.688-0.525l-1.148-0.564l-6.491-1.461
		l-6.766-0.318l-0.065,0.013l-0.567,0.032l-0.838,0.169l-0.812,0.266l-1.461,0.8l-1.56,1.154l-0.58,0.622l-0.258,0.363l-0.645,1.266
		l0.219-7.663l-0.129-0.674l-0.335-0.592l-2.893-1.707l-1.763-1.465l-1.062-0.627l-1.449-0.199l-5.704,0.143l-1.483-0.454
		l-3.925-2.981l-0.516-0.865l-0.09-1.412l0.288-1.49l0.602-1.105l0.408-1.053l-0.176-1.472l-0.567-1.602l-0.447-0.884l0.37-0.476
		l3.731-1.436l1.406-0.824l1.328-0.988l0.271-0.279l0.258-0.311l0.451-0.701l0.193-0.383l2.403-7.318l0.064-0.69l-0.039-0.759
		l-0.335-1.177l-0.361-0.558l-0.374-0.396l-1.057-0.668l-0.585-0.573l-0.438-0.714l-0.142-0.389l-0.129-0.448l-0.335-1.943
		l-0.232-0.883l-0.206-0.372l-0.284-0.285l-0.374-0.221l-0.413-0.136l-0.426-0.078l-2.454,0.175l-0.426-0.123l-0.245-0.305
		l0.039-1.051l0.258-1.566l1.315-4.924l0.391-0.963l0.245-0.324l0.271-0.299l0.245-0.331l0.284-0.292l0.245-0.318l1.122-1.158
		l0.335-0.26l3.28-1.911l0.284-0.266l0.258-0.325l0.142-0.669l0.052-0.95l-0.477-3.593l-0.335-0.786l-0.451-0.716l-0.542-0.597
		l-0.649-0.506l-0.8-0.379l-1.264-0.442l-0.361-0.214l-0.309-0.266l-0.258-0.312l-0.374-0.747l-0.271-0.898l0.052-0.825l0.232-1.085
		l0.774-2.186l0.451-0.981l0.4-0.675l1.47-1.386l0.322-0.247l1.165-1.137l0.709-1.003l0.206-0.435l0.155-0.877l0.077-1.321
		l-0.194-2.38l-0.348-1.938l-0.142-0.422v-0.708l0.155-0.944l0.529-1.67l0.632-1.438l0.219-0.351l0.206-1.49l-0.361-4.488
		l-0.387-2.628v-0.488l0.103-0.981l1.406-4.444l0.335-2.55l0.013-1.107l-0.374-2.499l-0.31-0.52l-0.477-0.572l-1.045-0.893
		l-0.658-0.41l-0.567-0.286l-2.274-0.637l-3.069-1.55l-0.365-0.377l-0.335-0.533l-0.361-1.003l-0.155-0.702l-0.258-4.986
		l-0.116-0.468l-0.98-2.428l-5.485-9.447l-1.99-5.517l-0.116-1.067l-0.31-0.855l-0.464-0.631l-0.984-0.618l-0.613-0.221l-1.868-0.28
		l-0.888-0.215l-0.827-0.345l-0.761-0.594l-0.671-0.703L478,312.925l-0.204-0.443l-0.271-0.846l-0.355-3.022l-0.226-0.901
		l-3.583-8.424l-0.972-1.545l-0.984-1.185l-11.591-9.341l-1.638-0.797l-4.743-1.264l1.76-1.774l1.659-3.639l0.55-0.547l0.49-0.248
		l0.92,0.195h0.634l0.763-0.091l2.897-0.971l0.542,0.013l0.443,0.143l1.984,0.925l0.432,0.137l0.634,0.091l0.806-0.02l1.41-0.28
		l0.662-0.436l0.524-0.547l0.357-0.612l0.477-0.263l0.656-0.208l0.251-0.365l0.176-0.456l0.894-1.481l0.077-0.463l-0.007-0.489
		l-0.077-0.463l0.142-0.586l0.393-0.621l1.24-1.134l0.849-0.6l0.653-0.38l3.701-1.297l1.715-0.039l2.033,0.371l1.769,0.573
		l1.33,0.58l2.919,1.879l1.186,1.155l0.761,0.938l1.81,1.768l1.006,0.743l0.928,0.091l1.457-0.013l3.344-0.384l1.354-0.365
		l0.778-0.476l0.116-0.484l-0.013-0.45l-0.064-0.371l-0.193-0.352l-0.546-3.419l0.043-0.508l0.245-0.547l0.426-0.261l0.529-0.098
		l2.579-0.111l0.529-0.235l0.327-0.332l0.077-0.458l0.039-0.502l-0.116-0.971l-0.172-0.424l-0.89-1.377l-0.284-0.3l-0.361-0.228
		l-0.413-0.176l-0.451-0.124l-0.529-0.039l-2.506,0.306l-1.818,0.463l-1.947,0.28l-0.417,0.013l-0.941-0.117l-0.903-0.261
		l-0.387-0.163l-0.322-0.248l-0.193-0.28l-0.052-0.424l0.168-0.928v-0.508l-0.168-0.919l-0.31-0.863l-0.052-0.502l0.18-0.685
		l0.335-0.358l0.516-0.263l0.593-0.143l0.851-0.287l0.4-0.345l0.219-0.424l-0.052-0.443l-0.206-0.367l-0.31-0.287l-1.573-0.756
		l-0.322-0.248l-0.232-0.333l-0.116-0.437v-0.458l0.052-0.482l0.116-0.456l0.903-2.623l0.619-1.287l0.89-1.376l0.464-0.372
		l0.481-0.157l0.413,0.117l0.748,0.417l0.464,0.143h0.542l0.722-0.274l0.297-0.413l0.103-0.502l-0.103-0.45l-0.193-0.378l-0.284-0.3
		l-0.916-0.822l-0.464-0.693l-0.18-0.365l-0.142-0.443l-0.09-0.47l0.142-0.628l0.335-0.698l1.663-2.155l0.684-1.331l0.542-1.457
		l0.378-0.665l0.013-0.483l-0.142-0.413l-0.249-0.359l-0.322-0.359l0.052-0.457l0.155-0.555l0.288-0.315l0.297-0.222l2.038-0.848
		l0.851-0.196l0.451-0.02l0.464,0.085l0.413,0.15l1.939,1.116l0.439,0.152l0.516,0.078h0.516l0.503-0.046l2.648-0.537l0.516-0.033
		l3.241,0.45h0.03h0.031l0.528,3.09l2.437,5.275l3.31,4.646l3.327,2.278l1.418,1.65l2.012,1.863l2.167,1.573l5.451,2.571l1.453,3.09
		l1.075,3.183l3.19,2.657l0.181,0.871l-0.026,0.965l0.206,1.234l-0.069,0.843l0.052,0.397l0.327,0.287l0.997,0.161l0.31,0.287
		l0.327,2.068l-0.628,1.279l-1.333,0.832l-3.671,1.633l-1.393,0.921l-2.768,2.5l-0.696,0.334l-0.636,0.078l-0.43,0.326l-0.094,1.088
		l0.344,0.884l0.645,0.623l0.576,0.721l0.146,1.162l-0.456,1.088l-0.653,0.506l-0.413,0.595l0.439,2.062l0.31,3.951l0.765,3.134
		l0.043,1.611l-0.069,3.129L536.417,305.837z"/>
	<path class="st0" d="M228.699,376.197l0.094-0.059l4.12-1.347l0.421-0.593l0.688-4.193l0.421-0.845l3.813-4.787l0.739-1.629
		l0.06-1.144l-0.37-0.68l-0.557-0.693l-0.524-1.17l-0.077-0.984l4.071-25.711l1.111-3.4l6.007-12.918l0.322-0.551l0.836-1.02
		l0.32-0.551l0.021-0.455l-0.243-1.089l0.069-0.421l0.716-0.681l1.851-1.119l0.662-0.716l0.275-0.929l0.361-6.271l0.243-0.616
		l0.522-0.061l0.555,0.369l0.421,0.477l0.116,0.269l1.358-1.146l3.796-4.397l1.53-1.094l4.965-1.667l1.715-0.875l0.821-1.087
		l0.077-1.465l-0.537-2.01l-1.1-2.419l-0.202-1.062l0.353-1.324l0.58-1.122l0.533-0.499l0.688,0.043l1.057,0.499l0.959,0.102
		l1.135-0.384l3.736-2.213l0.572-1.281l-3.828-23.549l-3.828-23.566l-0.396-1.32l0.499-0.265l0.243,0.361l0.251,0.135l0.643,0.13
		l1.76,0.946l3.349,3.651l0.069-0.104l0.344-0.057l0.434,0.026l0.342,0.135l1.137,1.148l2.414,4.59l3.123,2.426l0.709,1.915
		l0.453,0.913l1.988,1.217l0.451,0.715l0.2,0.856l1.502,2.93l-0.496,1.582l0.673,1.367l1.008,1.254l0.52,1.252l0.355,0.535
		l1.562,0.511l0.355,0.704l0.133,0.763l1.002,1.847l0.778,2.992l0.66,5.274l0.785,1.121l1.107,0.808l1.268,0.712l1.174,1.112
		l2.347,2.934l2.547,1.333l2.147,3.622l1.442,1.379l3.009,0.74l3.619-0.063l7.927-1.633l0.348-0.23l0.531-0.536l1.369-2.295
		l0.707-0.677l1.03-1.509l1.367-1.566l1.724-0.838l2.016,0.208l3.319,1.638l1.79,0.397l1.565-0.452l0.834-1.138l0.29-1.49
		l-0.056-1.512l-1.391-3.143l-2.59-0.606l-3.185,0.263l-3.16-0.53l-0.898-0.754l-0.698-1.175l-0.462-1.434l-0.161-1.543l-0.204-0.65
		l-0.365-0.684l-0.157-0.739l0.417-0.799l1.159-1.382l0.451-0.821l0.353-0.98l0.232-1.575l-0.232-5.055l0.112-1.8l0.374-1.761
		l0.701-1.639l1.083-1.43l3.392-1.47l6.199,1.985l2.442-1.091l1.064-0.276l0.587-0.5l0.254-0.313l0.211-0.404l0.275-0.863
		l0.191-0.391l0.232-0.333l0.436-0.326l0.58-0.267l1.03-0.293l0.655-0.009l4.933,0.974l0.84,0.039l2.038-0.209l0.95-0.215
		l1.595-0.694l0.722-0.411l0.335-0.254l0.269-0.307l0.189-0.404l0.477-2.468l0.123-0.437l0.18-0.407l0.221-0.365l0.264-0.32
		l0.305-0.281l1.35-0.881l2.035-0.287l4.466-0.172l1.03,0.061l0.95,0.248l0.77,0.372l0.327,0.254l0.578,0.574l0.322,0.261
		l0.754,0.824l1.221,1.024l4.146,2.794l0.707,0.372l1.431,0.465l1.782,0.359l1.266,0.111h1.767l0.705,0.202l0.439,0.32l0.451,1.278
		l0.4,1.861l1.221,2.809l0.327,1.35l0.041,0.404l0.002,0.459l-0.073,0.469l-0.301,0.854l-0.868,1.626l-0.492,0.593l-4.258,3.857
		l-0.49,0.652l-0.4,0.776l-0.129,0.443l-0.09,0.491l-0.056,2.76l-0.073,0.502l-0.142,0.45l-0.193,0.378l-0.258,0.348l-0.251,0.287
		l-0.595,0.554l-0.329,0.248l-0.58,0.573l-0.522,0.671l-0.224,0.354l-0.185,0.391l-0.11,0.43l0.434,0.6l0.851,0.797l2.278,1.499
		l1.137,1.488l0.877,1.505l8.857,24.886l0.471,0.762l0.595,0.345l0.858,0.237l0.559,0.312l0.625,0.449l0.41,0.085l0.273-0.215
		l0.419-0.716l0.499-0.666l0.716-1.406l0.153-0.182l0.26-0.202l0.34-0.217l0.4-0.195l0.363-0.299l0.254-0.404l0.131-0.488
		l0.071-0.534l-0.028-2.027l-0.084-0.449l-0.116-0.426l-0.322-0.749l-0.885-1.422l-0.344-0.742l-0.165-0.925v-0.543l0.064-0.528
		l0.101-0.475l0.155-0.436l0.196-0.371l0.251-0.371l0.31-0.276l0.37-0.221l0.761-0.306l2.659-0.645l0.393-0.169l0.666-0.469
		l1.225-1.136l0.533-0.632l0.406-0.749l1.317-3.503l0.209-0.352l0.239-0.326l0.245-0.267l0.699-0.567l0.754-0.439l0.795-0.365
		l1.212-0.384l0.383-0.182l0.357-0.208l0.602-0.541l0.55-0.595l1.042-1.382l0.544-0.595l0.277-0.208l0.249-0.143l0.262-0.098
		l0.374-0.065l0.471-0.046l1.038,0.059l1.601,0.267l1.055,0.065l0.84-0.052l1.855-0.358l1.879-0.124l0.535,0.091l0.46,0.143
		l0.391,0.189l0.636,0.504l1.367,1.447l0.959,1.312l0.284,0.293l0.254,0.326l0.277,0.306l0.245,0.332l8.617,6.997l4.621,2.705
		l1.539,0.536l3.4,0.521l1.494-0.085l0.885-0.3l4.743,1.264l1.638,0.797l11.591,9.341l0.984,1.185l0.972,1.545l3.583,8.424
		l0.226,0.901l0.355,3.022l0.271,0.846l0.204,0.443l2.035,3.258l0.671,0.703l0.761,0.594l0.827,0.345l0.888,0.215l1.868,0.28
		l0.613,0.221l0.984,0.618l0.464,0.631l0.31,0.855l0.116,1.067l1.99,5.517l5.485,9.447l0.98,2.428l0.116,0.468l0.258,4.986
		l0.155,0.702l0.361,1.003l0.335,0.533l0.365,0.377l3.069,1.55l2.274,0.637l0.567,0.286l0.658,0.41l1.045,0.893l0.477,0.572
		l0.31,0.52l0.374,2.499l-0.013,1.107l-0.335,2.55l-1.406,4.444l-0.103,0.981v0.488l0.387,2.628l-3.912-1.384l-0.555-0.033
		l-0.593,0.052l-1.277,0.546l-1.5,0.903l-1.212,0.503l-0.464,0.104l-0.58,0.013l-0.696-0.13l-0.98-0.392l-1.823-0.942l-0.838-0.325
		l-0.928-0.234l-21.027-0.821l-3.701-6.582l-1.621-2.082l-0.462-0.286l-0.449-0.208l-11.733-4.321l-8.679-1.536l-2.543-0.8
		l-0.724-0.371l-0.525-0.36l-0.533-0.598l-0.855-1.424l-1.487-3.62l-1.904-3.111l-1.453-1.505l-2.012-1.7l-0.971-0.559l-0.666-0.117
		l-0.318,0.234l-0.38,0.195l-1.7,0.581l-0.735,0.41l-1.234,1.106l-0.469,0.072l-0.606-0.098l-0.518-0.429l-0.325,0.065l-0.219,0.241
		l-0.391,0.78l-0.284,0.347l-0.335,0.28l-0.499,0.156l-0.348-0.13l-0.245-0.299l-0.125-0.321l-0.436-0.169l-0.613-0.072
		l-1.143-0.293l-0.742-0.319l-0.875-0.52l-0.533-0.078l-0.55,0.059l-0.731-0.02l-0.565,0.072l-0.408,0.202l-0.578,0.488
		l-0.406,0.059l-0.95-0.059l-1.103,0.124l-0.787,0.007l-0.428-0.182l-0.367-0.325l-0.638-0.819l-0.413-0.137l-0.426,0.02
		l-1.014,0.208l-0.651,0.007l-0.413-0.221l-0.737-0.763l-0.415-0.169l-2.379-0.338l-0.737-0.007l-0.526,0.169l-0.251,0.293
		l-0.46,0.698l-0.258,0.299l-1.044,0.702l-0.593,0.559l-0.249,0.312l-0.198,0.386l-0.31,0.865l-0.234,0.338l-0.333,0.241
		l-1.545,0.397l-0.939,0.065l-1.253,0.267l-0.767,0.039l-0.529,0.1l-0.451,0.134l-0.905,0.132l-0.428,0.13l-0.385,0.169
		l-0.462,0.156l-0.471,0.098l-1.61-0.007l-1.842,0.28l-1.795-0.052l-1.947-0.254l-0.937-0.241l-0.649-0.228l-0.445-0.379
		l-0.447-0.52l-0.477-0.676l-0.193-0.371l-0.31-0.783l-0.196-0.813l-0.176-4.069l-0.151-0.885l-0.602-1.667l-0.38-0.748l-0.4-0.442
		l-0.569-0.494l-1.193-0.731l-0.748-0.26l-0.6-0.091l-0.458,0.072l-0.421,0.124l-0.419,0.169l-0.72,0.41l-0.312,0.262l-0.574,0.611
		l-2.719,4.356l-1.014,1.294l-0.636,0.514l-3.357,2.005l-2.454,1.791l-0.23,0.26l-0.11,0.195l-0.116,0.325l0.006,0.438l0.114,0.429
		l0.641,1.632l0.473,1.816l0.056,0.507l-0.103,0.509l-0.271,0.475l-0.909,0.319l-0.819,0.15l-1.93,0.033l-0.6,0.072l-0.428,0.15
		l-0.716,0.429l-0.868,0.867l-1.294,2.141l-0.567,0.598l-0.484,0.306l-0.66,0.26l-1.371,0.169l-0.772-0.059l-0.666-0.182
		l-1.279-0.598l-0.578-0.065l-0.509,0.033l-0.445,0.111l-1.724,0.663l-0.55,0.156l-0.808,0.15l-0.524-0.085l-0.417-0.227
		l-0.294-0.28l-0.774-0.93l-0.982-0.795l-1.838-1.034l-1.33-0.423l-0.748-0.392l-0.23-0.338l-0.163-0.39l-0.198-0.949l-0.204-3.678
		l-0.163-0.52l-0.314-0.449l-0.688-0.397l-0.561-0.091l-0.552,0.026l-1.831,0.455l-0.849,0.312l-0.469,0.098l-3.11,0.111
		l-0.789-0.078l-0.574-0.182l-0.926-0.553l-0.479-0.085l-0.632,0.039l-0.684,0.111l-2.048-0.039l-0.57,0.124l-0.694,0.546
		l-0.494,0.247l-1.229,0.143l-3.925-0.618l-1.088-0.007l-0.636,0.254l-0.125,0.436l-0.088,0.501l-0.135,0.444l-0.206,0.377
		l-0.161,0.416l-0.254,0.904l-0.206,0.364l-0.518,0.594l-0.116,0.41l-0.075,0.481v1.459l-0.12,0.416l-0.331,0.806l-0.09,0.462
		l-0.028,0.412l0.06,0.273l0.213,0.163l0.344,0.163l0.43,0.137l0.989,0.13l0.995-0.098h1.012l0.464,0.091l0.426,0.169l0.331,0.241
		l1.855,2.167l0.325,0.28l0.357,0.189l0.439,0.117l0.477-0.013l3.097-0.624l0.301-0.026l0.38,0.026l0.327,0.169l3.147,2.609
		l2.194,2.381l0.692,0.483l0.832,0.306l4.09,1.027l0.239,0.169l0.004,0.292l-0.084,0.397l-0.647,1.114l-0.157,0.409l-0.062,0.461
		l0.206,1.334l-0.073,0.429l-0.593,1.685l-0.23,0.338l-0.322,0.254l-0.658,0.201l-0.886,0.189l-1.762,0.201l-0.832,0.214
		l-0.574,0.26l-0.898,0.899l-1.952,2.634l-1.133,1.235l-2.259,1.652l-2.278,1.302l-1.608,0.572l-10.138,0.572l-0.825-0.11
		l-0.245-0.318l-0.163-0.409l-0.232-0.858l-0.157-0.405l-0.38-0.364l-0.576-0.292l-1.195-0.195l-0.666,0.039l-0.535,0.169
		l-1.021,0.682l-5.253,5.782l-0.2,0.357l-0.122,0.403l-0.019,0.944l-0.2,0.344l-0.095,0.39l-0.357,0.728l-0.103,0.403l0.052,1.327
		l-0.101,0.383l-0.215,0.331l-0.251,0.305l-0.206,0.37l-0.176,0.398l-0.264,0.305l-0.619,0.526l-0.477,0.676l-0.282,0.292
		l-0.954,0.782l-0.361,0.208l-0.776,0.357l-0.344,0.214l-0.264,0.312l-0.155,0.435l-0.095,0.379l-0.013,0.286l0.438,0.188
		l0.449,0.033l0.494-0.046l2.977-0.846l4.208,0.104l1.629,0.191l0.959,0.266l0.419,0.195l0.337,0.234l0.31,0.305l0.226,0.351
		l0.122,0.364l-0.082,0.37l-0.314,0.292l-0.473,0.262l-0.748,0.318l-0.488,0.279l-0.4,0.292l-0.282,0.292l-0.251,0.351l-0.185,0.383
		l-0.267,0.885l-0.604,4.868l-0.112,0.474l-0.333,0.928l-0.413,0.82l-0.247,0.305l-0.284,0.299l-0.548,0.357l-0.815,0.415
		l-1.711,0.671l-0.933,0.234l-0.782,0.117l-1.096-0.104l-2.068-0.48l-0.649-0.058l-0.232,0.24l-0.09,0.383l-0.045,0.474l-0.29,1.411
		l-0.039,0.487l0.077,0.454l0.245,0.299l0.774,0.305l0.31,0.253l0.172,0.389l0.116,1.482l0.146,0.409l0.282,0.281l1.073,0.656
		l0.251,0.299l0.142,0.344l-0.064,0.37l-0.451,0.656l-0.193,0.359l-0.084,0.402l0.073,0.402l0.404,0.714l0.116,0.383l0.03,0.379
		l-0.262,0.363l-0.322,0.824l-0.249,0.318l-0.327,0.247l-0.297,0.281l-0.542,0.746l-0.464,0.363l-0.331,0.337l-0.23,0.396
		l-0.41,0.911l-0.456,0.383l-0.299,0.363l-0.204,0.428l-0.262,0.878l-0.645,0.999l-0.028,0.337l0.316,0.603l-0.006,0.353
		l-0.462,0.578l-0.168,0.363l-0.015,0.422l0.18,0.324l0.329,0.234l0.864,0.298l0.277,0.281l0.127,0.428v0.389l-0.142,0.811
		l-0.649-0.026l-0.752-0.376l-1.088-0.792l-0.924-0.521l-0.423-0.134l-0.492-0.093l-2.287-0.117l-0.462-0.084l-0.471-0.195
		l-0.387-0.363l-3.693-7.865l-0.348-0.389l-0.503-0.366l-0.967-0.428l-1.664-0.487l-0.408-0.169l-0.404-0.253l-0.393-0.383
		l-0.438-0.599l-0.342-0.883l-0.359-1.683l-0.322-0.461l-0.527-0.435l-1.094-0.532l-0.774-0.195l-0.698-0.084l-3.147,0.26
		l-1.075-0.013l-0.916-0.234l-0.38-0.195l-3.252-2.497l-0.778-0.376l-2.25-0.604l-0.406-0.214l-0.335-0.26l-0.258-0.422l0.039-0.586
		l-0.084-0.701l-0.204-0.811l-0.559-1.34l-0.206-0.844l-0.09-0.714l0.06-0.508l0.12-0.454l0.679-1.599l0.084-0.442l-0.017-0.467
		l-0.258-0.877l-0.17-0.396l-0.125-0.437l-0.077-0.461l-0.034-1.487l-0.14-0.535l-1.287-2.866l-0.415-1.769l-1.975-3.665
		l-0.933-1.061l-1.227-1.085l-2.525-1.399l-1.247-0.513l-0.916-0.208l-0.898,0.182l-3.149,1.293l-0.432,0.106l-0.464,0.019
		l-1.04-0.104l-0.524-0.204l-0.494-0.279l-0.636-0.5l-0.372-0.39l-0.292-0.37l-0.875-1.574l-0.567-1.704l-0.86-4.394l-0.08-0.283
		L228.699,376.197z"/>
	<path class="st0" d="M222.45,443.605l-0.988-1.199l-6.564-29.57l0.116-1.406l0.6-0.879l1.533-0.85l0.451-0.548l1.633-4.596
		l-0.193-0.558l-1.122-2.171l-1.04-1.344l-0.361-0.848l0.116-3.028l1.393-3.225l9.594-16.508l1.025-0.642l0.08,0.283l0.86,4.394
		l0.567,1.704l0.875,1.574l0.292,0.37l0.372,0.39l0.636,0.5l0.494,0.279l0.524,0.204l1.04,0.104l0.464-0.019l0.432-0.106
		l3.149-1.293l0.898-0.182l0.916,0.208l1.247,0.513l2.525,1.399l1.227,1.085l0.933,1.061l1.975,3.665l0.415,1.769l1.287,2.866
		l0.14,0.535l0.034,1.487l0.077,0.461l0.125,0.437l0.17,0.396l0.258,0.877l0.017,0.467l-0.084,0.442l-0.679,1.599l-0.12,0.454
		l-0.06,0.508l0.09,0.714l0.206,0.844l0.559,1.34l0.204,0.811l0.084,0.701l-0.039,0.586l0.258,0.422l0.335,0.26l0.406,0.214
		l2.25,0.604l0.778,0.376l3.252,2.497l0.38,0.195l0.916,0.234l1.075,0.013l3.147-0.26l0.698,0.084l0.774,0.195l1.094,0.532
		l0.527,0.435l0.322,0.461l0.359,1.683l0.342,0.883l0.438,0.599l0.393,0.383l0.404,0.253l0.408,0.169l1.664,0.487l0.967,0.428
		l0.503,0.366l0.348,0.389l3.693,7.865l0.387,0.363l0.471,0.195l0.462,0.084l2.287,0.117l0.492,0.093l0.423,0.134l0.924,0.521
		l1.088,0.792l0.752,0.376l0.649,0.026l-0.258,2l0.202,0.208l0.451,0.298l0.744,0.084l0.593,0.007l0.52-0.052l0.443-0.13
		l0.748-0.363l0.318-0.221l1.073-1.038l0.264-0.411l0.398-0.837l0.312-0.869l0.23-0.917l0.842-5.844l0.213-0.668l0.451-0.963
		l0.443-0.402l0.46-0.221l0.49,0.026l0.423,0.123l0.804,0.363l2.56,1.579l0.522,0.117h0.632l1.782-0.61l0.658-0.099l0.658,0.104
		l0.402,0.255l0.234,0.298l0.107,0.331l0.06,0.279l0.043,0.435v0.454l-1.59,4.722l-0.116,1.034l0.021,0.512l0.103,0.428l0.215,0.376
		l0.748,0.37l6.102,1.417l0.402,0.182l0.344,0.24l0.297,0.281l0.658,1.038l0.168,0.409l0.365,1.345l0.183,0.474l0.258,0.493
		l0.512,0.584l0.516,0.227l0.638,0.093l1.93-0.086l-0.421,1.248l-0.593,0.83l-1.354,1.254l-1.027,0.727l-2.261,0.915l-1.414,0.761
		l-0.647,0.525l-0.402,0.493l-0.123,0.443l-0.155,0.999l-0.052,1.051l0.107,1.079l0.131,0.538l0.232,0.661l0.628,1.046l0.322,0.337
		l2.442,1.636l1.361,0.642l0.666,0.227l0.449,0.097l1.704,0.577l0.696,0.46l0.832,0.891l0.271,0.512l0.901,2.239l0.307,0.383
		l0.288,0.227l0.357,0.194l2.618,1.098l1.264,0.661l0.32,0.259l0.337,0.227l1.573,1.636l3.77,5.457l0.232,0.268l0.277,0.272
		l1.494,1.16l0.378,0.214l0.43,0.188l1.945,0.473l0.419,0.168l0.529,0.456l0.623,0.707l1.133,1.564l0.428,0.869l0.185,0.745
		l-0.052,0.495l-0.34,1.504l-0.107,1.279l0.077,0.901l0.198,0.519l0.327,0.343l1.066,0.482l0.61,0.48l0.183,0.499l-0.032,0.434
		l-0.232,0.313l-0.576,0.583l-0.258,0.324l-0.209,0.356l-0.142,0.441l-0.058,0.493l0.067,1.674l-0.105,0.916l-0.456,1.795
		l-0.529,1.343l-0.077,0.752l0.026,0.883l0.29,1.678l0.335,0.732l0.406,0.436l0.462,0.032l0.443-0.058l2.77-1.104l0.853-0.233
		l0.956-0.104l0.505,0.019l0.514,0.078l0.432,0.175l0.38,0.207l0.959,0.78l0.393,0.201l0.432,0.156l0.484,0.091l2.001,0.039
		l1.021,0.169l0.89,0.292l0.791,0.343l1.494,0.851l1.115,0.965l1.055,1.136l0.791,1.211l0.095,0.402l0.041,0.376l-0.103,0.339
		l-0.415,0.68l-0.249,0.305l-0.355,0.207l-0.385,0.117l-0.367,0.188l-0.264,0.305l-0.193,0.376l-0.258,0.89l-0.172,0.972
		l-0.039,0.499l0.039,0.488l0.249,0.978l0.537,1.466l1.337,1.613l0.297,0.294l0.677,0.505l0.84,0.33l0.52,0.266l0.512,0.35
		l0.701,0.674l0.359,0.482l0.297,0.615l0.58,1.848l0.264,0.622l0.288,0.486l1.064,1.239l2.721,2.463l3.359,2.152l0.546,0.518
		l0.86,0.984l0.256,0.637l-0.039,0.46l-0.264,0.285l-2.489,1.938l-1.023,1.269l-0.297,0.278l-0.335,0.233l-0.348,0.203l-0.368,0.142
		l-0.438,0.097l-0.458,0.045l-1.152-0.019l-0.423,0.065l-0.827,0.24l-0.374,0.149l-0.361,0.194l-0.342,0.24l-0.316,0.259
		l-0.516,0.621l-1.634,3.034l-0.361,0.855l-0.271,0.932l-0.331,2.041l-0.03,0.889l0.711,5.416l0.003,0.018l-0.057,0.04l-1.195-0.55
		l-1.466-0.109l-1.415,0.353l-1.029,0.819l-0.132,0.676l0.579,1.257l-0.19,0.659l-0.521,0.598l-0.345,0.313l-5.697,2.82
		l-1.012,0.771l-2.4,2.653l-0.186,0.612l0.149,0.557l-0.041,0.394l-0.734,0.146l-0.775,0.061l-5.713,1.634l-6.377,2.86l-1.33,1.175
		l-2.011,2.867l-1.249,1.196l-1.178,0.476l-5.734,0.734l-1.12,0.455L312.384,570l-0.501-0.112l-0.606-0.55l-0.233-0.859l0.088-0.934
		l-0.196-0.754l-1.08-0.302l-0.67-0.095l-1.259-0.387l-0.934-0.092l0.085-0.384l-0.778-0.822l-3.54-2.833l-1.757-0.747l-0.802-0.482
		l-0.339-0.74l-0.142-0.611l-0.366-0.639l-0.46-0.509l-8.638-3.38l-14.074-2.905l-13.695-4.658l-10.851-0.826l-11.989-2.107
		l-11.542-3.541l-1.32-0.302l0.359-1.376l0.582-0.149l0.775-0.303l0.944-0.146l5.95,0.044l1.797,0.527l0.498,0.493l1.015,1.471
		l0.447,0.313l1.097-0.149l1.706-0.72l0.907-0.272l-0.223-2.294l2.312-0.969l2.989-0.476l1.797-0.819l3.314,0.129l1.911-0.276
		l1.186-0.848l0.8-1.573l-0.456-0.537l-1.096-0.939l-0.262-0.289l-0.069-0.762l0.352-1.746l0.043-0.714l-0.37-0.961l-1.161-1.673
		l-0.236-1.159l0.546-5.17l2.803,0.514l1.105-0.203l0.825-1.051l0.211-1.457l-0.357-1.503l-2.27-5.328l-1.474-5.981l-0.198-4.379
		l-0.314-1.35l-0.653-1.095l-1.066-0.866l-5.926-1.531l-1.352,0.54l-2.708,1.641l-1.627,0.203l-1.967-1.099l-0.449-2.16l0.84-5.225
		l-5.403,0.462l0.815-9.54l-0.213-3.023l-1.014-3.027l-3.205-5.875l-1.208-2.989l-2.521-13.952l-1.771-4.67l-2.448-2.24
		L222.45,443.605z"/>
	<path class="st0" d="M259.293,44.993l7.807-0.078l16.236-0.166l20.122-0.199l18.716-0.188l18.2-0.18l12.926-0.127l0.971-0.554
		l0.598-1.487l1.449-0.455l10.51,0.328l1.038,0.407l-1.637,3.663l-0.438,1.662l0.148,1.309l-0.032,1.143l-0.181,0.692l-0.327,0.624
		l-0.112,0.466l0.041,0.479l0.12,0.486l-0.034,3.537l-0.301,0.565l-0.391,0.341l-0.439,0.151l-0.378,0.212l-0.284,0.302
		l-1.251,0.912l-0.61,0.834l-0.155,0.737l-0.039,1.083l-0.071,0.499l-0.127,0.35l-1.154,1.044l-1.182,1.407l-0.458,0.341
		l-0.799,0.368l-0.499,0.289l-0.555,0.433l-0.774,0.901l-0.303,0.689l-0.245,0.827l-0.421,2.397l0.028,0.776l0.082,0.577
		l0.359,0.768l0.153,0.433l0.477,2.989l0.122,0.446l0.168,0.413l0.2,0.381l0.314,0.84l0.245,0.343l0.331,0.236l0.492,0.085
		l0.499,0.02l0.514,0.059l0.391,0.184l0.273,0.308l0.189,0.393l0.155,0.426l0.2,0.38l0.316,0.265l0.406,0.171l0.303,0.229
		l0.239,0.249l0.346,0.459l0.264,0.256l0.398,0.164l0.986,0.118l0.458,0.111l1.163,0.599l0.303,0.295l0.217,0.571l-0.039,0.544
		l-0.159,0.789l0.071,0.485l0.271,0.892l0.2,0.374l0.282,0.302l0.643,0.492l0.709,0.402l0.849,0.774l0.196,0.138h0.191l0.234-0.105
		l0.273-0.236l0.793-0.938l0.355-0.21l0.41-0.088l0.46,0.052l0.787,0.363l0.391,0.466l0.359,0.715l0.436,1.49l0.202,1.711
		l-0.131,1.385l-0.097,0.479l-0.578,0.538l-2.678-0.859l-3.007-1.576l-1.786-0.715l-1.115-0.118l-0.567,0.013l-0.572,0.065
		l-0.619,0.177l-0.389,0.223l-0.297,0.249l-1.116,1.451l-1.653,3.142l-0.514,0.677l-1.174,1.167l-3.336,2.48l-1.032,1.057
		l-0.8,1.121l-0.464,0.898l-0.161,0.454l-0.213,0.996l-0.213,3.278l-0.09,0.507l-0.183,0.576l-1.348,2.459l-0.245,0.576l-0.019,0.55
		l0.52,0.618l6.34,5.657l0.63,0.681l0.344,0.611l-0.213,0.491l-0.331,0.295l-0.881,0.327l-1.06,0.55l-0.363,0.105l-0.398,0.026
		l-0.49-0.013l-0.505-0.065l-0.815-0.314l-0.415-0.078l-0.408,0.078l-0.406,0.124l-1.04,0.177l-0.522,0.196l-0.09,0.258l0.219,0.209
		l1.395,0.347l0.4,0.236l0.245,0.34l-0.084,0.661l-0.29,0.354l-0.443,0.183l-0.501,0.013l-0.473-0.096l-0.499-0.035l-0.46,0.022
		l-1.111,0.642l-0.535,0.144l-0.677,0.327l-0.38,0.327l-0.254,0.36l-0.174,0.386l-0.002,0.007l-0.335,0.899l-0.062,0.491
		l0.116,1.436l-0.032,0.432l0.03,0.432l0.125,0.393l0.688,1.034l0.135,0.441l0.082,0.497l-0.026,0.576l-0.122,0.702l-0.314,0.923
		l-0.168,0.929l-0.271,0.543l-0.301,0.349l-0.4,0.196l-1.939,0.583l-0.759,0.55l-0.535,0.683l-0.692,1.198l-0.49,0.478l-0.509,0.281
		l-2.02,0.059l-4.64-0.596h-0.32l-1.33,0.255l-1.053,0.092l-5.395-0.347l-10.828,2.417l-3.151,0.111l-2.02-0.275l-0.976-0.222
		l-2.197-0.17l-1.118,0.026l-0.986,0.144l-2.682,0.792l-0.509,0.052l-7.389-0.55l-0.473,0.052l-7.705,2.397l-0.997,0.151
		l-4.142,0.059l-1.242,0.229l-1.281,0.366l-0.671,0.303l-0.501,0.301l-0.312,0.281l-0.458,0.674l-0.2,0.392l-0.516,1.566
		l-0.421,0.693l-0.436,0.34l-0.576,0.231l-1.509,0.353l-0.537,0.262l-0.4,0.294l-0.251,0.34l-0.477,0.818l-0.393,0.549l-0.69,0.794
		l-0.692,0.464l-0.591,0.236l-9.415,1.296l-0.633-0.494l-0.267-0.774l-0.103-0.772l-0.421-0.682l-0.726-0.366l-0.464,0.052
		l-0.456-0.079l-0.679-0.761l-0.567-1.751l0.31-1.766l1.393-2.82l2.876-3.23l0.529-0.859l-0.236-0.827l-1.977-3.204l-0.361-2.129
		l0.774-3.834l0.099-2.165l-0.542-1.519l-1.887-2.85l-0.408-1.711v-4.528v-2.711l-0.868-3.817l0.039-1.684l1.087-1.738l1.685-1.33
		l0.619-0.745l0.275-1.125l-0.047-1.086l-0.284-0.45l-0.542-0.253l-0.83-0.518l-0.8-0.301l-0.726,0.022l-0.54-0.201l-0.202-0.963
		l-0.299-0.566l-0.709-0.175l-0.851-0.096l-0.727-0.319l-0.675-1.379v-1.774l0.417-1.724l0.567-1.237l0.593-0.787l0.641-0.518
		l0.806-0.288l1.077-0.087l0.911-0.361l0.761-0.795l0.361-0.793l-0.322-0.363l-2.033-0.052l-1.354-0.229l-1.023-0.524l-2.921-2.588
		l-0.651-1.069l-0.254-1.652l-0.245-0.398l-1.124-1.126l-0.385-0.496l-0.223-0.826l-0.138-1.806l-0.202-0.833l-2.493-4.452
		l-0.352-1.616l0.236-0.838l1.115-2.021l0.507-1.389l0.234-0.324l0.185-0.374l-0.002-0.547l-0.241-0.376l-0.383-0.184l-0.359-0.068
		h-0.163l-0.087-0.379l-0.197-0.857l0.254-0.507l0.89-0.886l0.456-0.803l0.301-1.934l1.399-2.293l0.918-3.928l0.615-1.764
		l1.118-1.294l1.326-1.022l1.12-1.241l0.469-1.939l-0.499-1.622l-0.911-1.502l-0.499-1.618l0.23-0.602l-0.116-0.491l7.172,0.131
		l0.034,0.9L259.293,44.993z"/>
	<path class="st0" d="M456.395,506.398l-1.02,0.496l-6.113,5.128l-0.65,0.942l-0.437,1.285l-1.12,1.163l-2.982,1.836l-5.818,1.438
		l-0.995,0.01l-0.609,0.602l-1.347,1.027l-1.381,0.442l-0.69-1.183l-4.305,3.019l-1.063,0.398l-4.86,3.994l-1.977,2.332
		l-1.252,0.789l-6.184,0.904l-1.909-0.085l-1.219-1.084l-0.565,0.717l-0.785,0.275l-2.058,0.143l-2.004,0.51l-0.985-0.041
		l-0.423-0.748l-0.298-0.755l-0.664,0.187l-1.022,0.846l-1.371,0.122l-1.33,0.357l-8.678,3.742l-0.88,1.223l-0.745,0.724
		l-1.699,0.999l-3.29,1.492l-1.706,0.353l-5.416,0.163l-0.894,0.252l-1.926,1.148l-0.904,0.364l-0.843,0.065l-1.716-0.105
		l-0.846,0.041l-1.54,0.5l-3.016,1.478l-5.788,0.826l-1.879,0.707l-1.409,1.013l-0.003-0.018l-0.711-5.416l0.03-0.889l0.331-2.041
		l0.271-0.932l0.361-0.855l1.634-3.034l0.516-0.621l0.316-0.259l0.342-0.24l0.361-0.194l0.374-0.149l0.827-0.24l0.423-0.065
		l1.152,0.019l0.458-0.045l0.438-0.097l0.368-0.142l0.348-0.203l0.335-0.233l0.297-0.278l1.023-1.269l2.489-1.938l0.264-0.285
		l0.039-0.46l-0.256-0.637l-0.86-0.984l-0.546-0.518l-3.359-2.152l-2.721-2.463l-1.064-1.239l-0.288-0.486l-0.264-0.622l-0.58-1.848
		l-0.297-0.615l-0.359-0.482l-0.701-0.674l-0.512-0.35l-0.52-0.266l-0.84-0.33l-0.677-0.505l-0.297-0.294l-1.337-1.613l-0.537-1.466
		l-0.249-0.978l-0.039-0.488l0.039-0.499l0.172-0.972l0.258-0.89l0.193-0.376l0.264-0.305l0.367-0.188l0.385-0.117l0.355-0.207
		l0.249-0.305l0.415-0.68l0.103-0.339l-0.041-0.376l-0.095-0.402l-0.791-1.211l-1.055-1.136l-1.115-0.965l-1.494-0.851l-0.791-0.343
		l-0.89-0.292l-1.021-0.169l-2.001-0.039l-0.484-0.091l-0.432-0.156l-0.393-0.201l-0.959-0.78l-0.38-0.207l-0.432-0.175
		l-0.514-0.078l-0.505-0.019l-0.956,0.104l-0.853,0.233l-2.77,1.104l-0.443,0.058l-0.462-0.032l-0.406-0.436l-0.335-0.732
		l-0.29-1.678l-0.026-0.883l0.077-0.752l0.529-1.343l0.456-1.795l0.105-0.916l-0.067-1.674l0.058-0.493l0.142-0.441l0.209-0.356
		l0.258-0.324l0.576-0.583l0.232-0.313l0.032-0.434l-0.183-0.499l-0.61-0.48l-1.066-0.482l-0.327-0.343l-0.198-0.519l-0.077-0.901
		l0.107-1.279l0.34-1.504l0.052-0.495l-0.185-0.745l-0.428-0.869l-1.133-1.564l-0.623-0.707l-0.529-0.456l-0.419-0.168l-1.945-0.473
		l-0.43-0.188l-0.378-0.214l-1.494-1.16l-0.277-0.272l-0.232-0.268l-3.77-5.457l-1.573-1.636l-0.337-0.227l-0.32-0.259l-1.264-0.661
		l-2.618-1.098l-0.357-0.194l-0.288-0.227l-0.307-0.383l-0.901-2.239l-0.271-0.512l-0.832-0.891l-0.696-0.46l-1.704-0.577
		l-0.449-0.097l-0.666-0.227l-1.361-0.642l-2.442-1.636l-0.322-0.337l-0.628-1.046l-0.232-0.661l-0.131-0.538l-0.107-1.079
		l0.052-1.051l0.155-0.999l0.123-0.443l0.402-0.493l0.647-0.525l1.414-0.761l2.261-0.915l1.027-0.727l1.354-1.254l0.593-0.83
		l0.421-1.248l3.843,0.182l0.997,0.592l0.172,0.59l0.06,0.383l-0.045,0.435l-0.122,0.409l-0.374,0.787l-0.135,0.454l-0.032,0.538
		l0.129,1.215l-0.077,0.48l-0.168,0.376l-0.284,0.292l-0.245,0.424l-0.176,0.532l1.227,6.49l0.38,1.001l0.43,0.506l0.267-0.026
		l0.653-0.234l0.426-0.032l0.533,0.207l0.402,0.72l1.182,3.292l0.516,0.882l0.518,0.441l0.359-0.013l0.331,0.11l0.303,0.305
		l1.354,1.72l0.752,0.687l0.524,0.151l0.396-0.019l0.251-0.279l0.2-0.346l0.361-0.201l0.544-0.02l1.057,0.514l0.677,0.108
		l0.552-0.004l0.391-0.145l0.31-0.194l0.501-0.499l0.305-0.156l0.393-0.052l0.873,0.084l1.126,0.512l0.17,0.376l-0.013,0.404
		l-0.122,0.376l-0.103,0.48l-0.024,0.292l0.011,0.421l0.14,0.603l0.389,0.333l1.799,0.908l0.284,0.311l0.245,0.493l0.292,0.259
		l1.169,0.248l0.914,0.039l2.267,0.921l0.408,0.402l0.395,0.655l0.559,0.326l0.703,0.279l1.255,0.655l0.757,0.175l0.537-0.032
		l0.421-0.156l0.57,0.013l0.92-0.181l1.879-0.13l0.881-0.162l1.036,0.052l0.666,0.246l0.475-0.007l0.776-0.233l0.894,0.026
		l0.447-0.039l0.417-0.097l0.456-0.058l0.791,0.266l1.341,0.246l0.494,0.298l0.649,0.642l0.344,0.462l0.193,0.441l0.004,0.383
		l-0.159,0.266l-0.335,0.097l-0.387,0.052l-0.335,0.201l0.028,0.415l0.32,0.54l1.328,0.784l0.761,0.35l0.744,0.259l0.404,0.039
		l0.35-0.156l0.226-0.318l0.473-1.121l-0.039-0.398l-0.129-0.344l-0.052-0.337l0.161-0.272l0.806-0.175l0.926,0.02l0.38-0.117
		l0.34-0.143l0.731-0.117l0.256-0.246l0.232-0.331l0.284-0.313l1.58-0.292l0.477-0.02l0.421-0.084l0.378-0.162l0.277-0.279
		l0.481-0.13l0.671-0.007l1.898,0.499l0.559,0.421l0.441,0.175l0.473,0.02l0.464-0.117l0.561-0.071l0.335,0.203l0.18,0.376
		l0.129,0.473l0.172,0.421l0.228,0.428l0.357,0.065l0.445-0.006l0.432-0.136l0.391-0.175l0.679-0.486l0.436-0.097l0.256,0.136
		l0.252,0.272l0.219,0.039l0.107-0.292l0.08-0.408l0.133-0.397l0.57-0.389l0.181-0.188l0.107-0.149l0.097-0.428l2.728,1.448
		l2.439,0.914l0.396,0.35l0.224,0.376l2.594,5.639l1.214,2.089l0.438,0.48l0.206,0.156l0.529,0.136l0.752,0.071l7.181-0.104
		l0.595,0.065l0.772,0.162l1.24,0.415l0.645,0.35l0.812,0.598l0.544,0.181l0.748,0.065l2.066-0.253l1.019-0.227l0.939-0.117
		l1.623,0.162l8.09,1.763l0.426,0.175l0.959,0.242l1.78,0.013l14.044-1.13l2.229,0.356l3.738,1.46l3.091,6.102l1.234,1.862
		l0.718,0.57l0.821,0.384l0.451,0.142l1.3,0.674l1.148,0.816l0.531,0.546l0.374,0.479l1.313,2.963L456.395,506.398z"/>
	<path class="st0" d="M542.313,484.633l-25.675-1.874l-3.574,0.19l-1.983,0.463l-1.009,0.401l-0.42,0.49l-0.42,0.238l-2.01,0.088
		l-0.697,0.245l-1.577,1.133l-5.571,1.51l-1.273,0.861l-2.288,2.139l-3.236,0.929l-1.164,1.231l-0.921,1.51l-1.34,1.371
		l-6.617,2.234l-0.386,0.231l-1.086,1.088l-0.487,0.388l-0.731,0.262l-1.32,0.119l-17.851,5.788l-3.764,0.476l-0.516,0.253
		l-1.268-4.453l-1.313-2.963l-0.374-0.479l-0.531-0.546l-1.148-0.816l-1.3-0.674l-0.451-0.142l-0.821-0.384l-0.718-0.57
		l-1.234-1.862l-3.091-6.102l-0.187-0.635l-0.069-0.365l-0.034-0.46l0.011-0.719l0.352-1.83l0.095-0.259l0.129-0.266l0.219-0.162
		l0.202-0.11l0.714-0.24l0.84-0.149l3.587-0.274l0.933,0.112l0.524,0.324l-0.002,1.439l0.161,0.376l0.288,0.294l0.765,0.428
		l1.281,0.467l0.393,0.188l1.511,0.583l0.838,0.123l2.078,0.078l0.677-0.155l0.812-0.272l1.421-0.693l0.703-0.434l0.494-0.376
		l1.578-1.901l0.443-0.227l0.54-0.132l0.956,0.138l0.55,0.246l0.434,0.311l0.288,0.292l0.314,0.266l0.709,0.428l0.873,0.298
		l0.641-0.045l0.765-0.207l1.165-0.7l0.6-0.473l0.423-0.421l0.251-0.326l0.213-0.344l0.795-1.627l0.896-3.232l0.922-1.934
		l0.318-0.389l0.445-0.285l3.501-1.428l0.63-0.512l0.329-0.499l1.365-4.879l0.312-0.305l0.486-0.097l0.903,0.324l0.533,0.285
		l0.415,0.318l0.563,0.668l0.286,0.119l0.284-0.032l0.645-0.207l0.984-0.482l3.005-2.031l0.606-0.182l0.976-0.194h1.156l1.07,0.104
		l0.529,0.337l0.31,0.359l1.109,2.317l0.482,0.655l0.593,0.551l0.671,0.486l0.361,0.214l2.283,0.981l0.361,0.35l0.262,0.344
		l1.096,1.701l0.529,0.603l0.864,0.823l0.335,0.24l0.451,0.177l0.516,0.078l0.658-0.045l0.469-0.158l1.096-0.681l1.277-1.199
		l3.602-4.101l0.645-1.266l0.258-0.363l0.58-0.622l1.56-1.154l1.461-0.8l0.812-0.266l0.838-0.169l0.567-0.032l0.065-0.013
		l6.766,0.318l6.491,1.461l1.148,0.564l0.688,0.525l0.838,0.89l2.927,8.012l0.933,1.16l0.929,0.702l1.161,0.732l1.793,0.694
		l1.191,0.592l0.684,0.473l0.322,0.259l0.284,0.311l0.245,0.408l0.142,0.577l-0.232,0.475l-0.258,0.311l-1.664,0.499l-1.758,1.201
		L542.313,484.633z"/>
	<path class="st0" d="M468.5,364.598l-4.78,0.86l-1.498,0.533l-0.638,0.5l-0.578,0.568l-1.642,2.079l-0.529,0.535l-1.023,0.845
		l-0.997,0.604l-4.135,1.386l-0.931,0.409l-0.625,0.37l-0.572,0.585l-0.262,0.418l-0.911,1.014l-0.791,0.234l-11.114,0.208
		l-1.262,0.266l-0.939,0.808l-14.948,20.954l-0.686,0.591l-0.533,0.331l-0.426,0.143l-6.003,0.844l-1.823,0.677l-2.016,0.961
		l-0.847,0.604l-0.537,0.528l-0.327,0.825l-0.228,0.909l-0.043,0.493l0.028,0.489l0.092,0.454l0.157,0.402l0.419,0.714l0.512,0.651
		l0.585,0.571l1.943,1.508l0.29,0.273l0.273,0.312l0.445,0.688l0.374,0.766l0.217,0.885l0.022,0.441l-0.026,0.286l-0.297,0.545
		l-0.533,0.671l-2.336,2.326l-0.469,0.669l-0.195,0.376l-0.4,0.552l-10.787,11.186l-3.566,5.617l-1.264,3.352l-0.967,3.65
		l-0.194,1.142l-0.217,0.642l-0.458,0.936l-0.365,0.506l-0.342,0.389l-0.645,0.499l-1.861,1.066l-0.165,0.337l0.129,0.266
		l0.256,0.305l0.217,0.344l0.148,0.422l0.052,0.476v0.512l-0.161,1.031l-0.198,0.657l-0.941,1.595l-0.202,0.46l0.06,0.37
		l0.129,0.339l-0.056,0.811l0.194,0.266l0.361,0.11l0.355,0.24l0.213,0.339l-0.03,0.519l-0.31,0.285l-1.027,0.292l-0.284,0.331
		l-0.135,0.467l-0.09,0.493l-0.578,1.844l-0.237,0.534l-0.709,1.18l-0.63,1.74l-0.079,0.577v0.071l-0.108,0.454l-0.507,1.098
		l-0.112,0.389l0.028,0.35l0.165,0.253l0.303,0.013l0.353-0.065l0.406,0.019l0.297,0.194l0.258,0.305l0.032,1.13l-1.507,2.971
		l-0.097,0.428l-0.107,0.149l-0.181,0.188l-0.57,0.389l-0.133,0.397l-0.08,0.408l-0.107,0.292l-0.219-0.039l-0.252-0.272
		l-0.256-0.136l-0.436,0.097l-0.679,0.486l-0.391,0.175l-0.432,0.136l-0.445,0.006l-0.357-0.065l-0.228-0.428l-0.172-0.421
		l-0.129-0.473l-0.18-0.376l-0.335-0.203l-0.561,0.071l-0.464,0.117l-0.473-0.02l-0.441-0.175l-0.559-0.421l-1.898-0.499
		l-0.671,0.007l-0.481,0.13l-0.277,0.279l-0.378,0.162l-0.421,0.084l-0.477,0.02l-1.58,0.292l-0.284,0.313l-0.232,0.331
		l-0.256,0.246l-0.731,0.117l-0.34,0.143l-0.38,0.117l-0.926-0.02l-0.806,0.175l-0.161,0.272l0.052,0.337l0.129,0.344l0.039,0.398
		l-0.473,1.121l-0.226,0.318l-0.35,0.156l-0.404-0.039l-0.744-0.259l-0.761-0.35l-1.328-0.784l-0.32-0.54l-0.028-0.415l0.335-0.201
		l0.387-0.052l0.335-0.097l0.159-0.266l-0.004-0.383l-0.193-0.441l-0.344-0.462l-0.649-0.642l-0.494-0.298l-1.341-0.246
		l-0.791-0.266l-0.456,0.058l-0.417,0.097l-0.447,0.039l-0.894-0.026l-0.776,0.233l-0.475,0.007l-0.666-0.246l-1.036-0.052
		l-0.881,0.162l-1.879,0.13l-0.92,0.181l-0.57-0.013l-0.421,0.156l-0.537,0.032l-0.757-0.175l-1.255-0.655l-0.703-0.279
		l-0.559-0.326l-0.395-0.655l-0.408-0.402l-2.267-0.921l-0.914-0.039l-1.169-0.248l-0.292-0.259l-0.245-0.493l-0.284-0.311
		l-1.799-0.908l-0.389-0.333l-0.14-0.603l-0.011-0.421l0.024-0.292l0.103-0.48l0.122-0.376l0.013-0.404l-0.17-0.376l-1.126-0.512
		l-0.873-0.084l-0.393,0.052l-0.305,0.156l-0.501,0.499l-0.31,0.194l-0.391,0.145l-0.552,0.004l-0.677-0.108l-1.057-0.514
		l-0.544,0.02l-0.361,0.201l-0.2,0.346l-0.251,0.279l-0.396,0.019l-0.524-0.151l-0.752-0.687l-1.354-1.72l-0.303-0.305l-0.331-0.11
		l-0.359,0.013l-0.518-0.441l-0.516-0.882l-1.182-3.292l-0.402-0.72L321,454.976l-0.426,0.032l-0.653,0.234l-0.267,0.026
		l-0.43-0.506l-0.38-1.001l-1.227-6.49l0.176-0.532l0.245-0.424l0.284-0.292l0.168-0.376l0.077-0.48l-0.129-1.215l0.032-0.538
		l0.135-0.454l0.374-0.787l0.122-0.409l0.045-0.435l-0.06-0.383l-0.172-0.59l-0.997-0.592l-3.843-0.182l-1.93,0.086l-0.638-0.093
		l-0.516-0.227l-0.512-0.584l-0.258-0.493l-0.183-0.474l-0.365-1.345l-0.168-0.409l-0.658-1.038l-0.297-0.281l-0.344-0.24
		l-0.402-0.182l-6.102-1.417l-0.748-0.37l-0.215-0.376l-0.103-0.428l-0.021-0.512l0.116-1.034l1.59-4.722v-0.454l-0.043-0.435
		l-0.06-0.279l-0.107-0.331l-0.234-0.298l-0.402-0.255l-0.658-0.104l-0.658,0.099l-1.782,0.61h-0.632l-0.522-0.117l-2.56-1.579
		l-0.804-0.363l-0.423-0.123l-0.49-0.026l-0.46,0.221l-0.443,0.402l-0.451,0.963l-0.213,0.668l-0.842,5.844l-0.23,0.917
		l-0.312,0.869l-0.398,0.837l-0.264,0.411l-1.073,1.038l-0.318,0.221l-0.748,0.363l-0.443,0.13l-0.52,0.052l-0.593-0.007
		l-0.744-0.084l-0.451-0.298l-0.202-0.208l0.258-2l0.142-0.811v-0.389l-0.127-0.428l-0.277-0.281l-0.864-0.298l-0.329-0.234
		l-0.18-0.324l0.015-0.422l0.168-0.363l0.462-0.578l0.006-0.353l-0.316-0.603l0.028-0.337l0.645-0.999l0.262-0.878l0.204-0.428
		l0.299-0.363l0.456-0.383l0.41-0.911l0.23-0.396l0.331-0.337l0.464-0.363l0.542-0.746l0.297-0.281l0.327-0.247l0.249-0.318
		l0.322-0.824l0.262-0.363l-0.03-0.379l-0.116-0.383l-0.404-0.714l-0.073-0.402l0.084-0.402l0.193-0.359l0.451-0.656l0.064-0.37
		l-0.142-0.344l-0.251-0.299l-1.073-0.656l-0.282-0.281l-0.146-0.409l-0.116-1.482l-0.172-0.389l-0.31-0.253l-0.774-0.305
		l-0.245-0.299l-0.077-0.454l0.039-0.487l0.29-1.411l0.045-0.474l0.09-0.383l0.232-0.24l0.649,0.058l2.068,0.48l1.096,0.104
		l0.782-0.117l0.933-0.234l1.711-0.671l0.815-0.415l0.548-0.357l0.284-0.299l0.247-0.305l0.413-0.82l0.333-0.928l0.112-0.474
		l0.604-4.868l0.267-0.885l0.185-0.383l0.251-0.351l0.282-0.292l0.4-0.292l0.488-0.279l0.748-0.318l0.473-0.262l0.314-0.292
		l0.082-0.37l-0.122-0.364l-0.226-0.351l-0.31-0.305l-0.337-0.234l-0.419-0.195l-0.959-0.266l-1.629-0.191l-4.208-0.104
		l-2.977,0.846l-0.494,0.046l-0.449-0.033l-0.438-0.188l0.013-0.286l0.095-0.379l0.155-0.435l0.264-0.312l0.344-0.214l0.776-0.357
		l0.361-0.208l0.954-0.782l0.282-0.292l0.477-0.676l0.619-0.526l0.264-0.305l0.176-0.398l0.206-0.37l0.251-0.305l0.215-0.331
		l0.101-0.383l-0.052-1.327l0.103-0.403l0.357-0.728l0.095-0.39l0.2-0.344l0.019-0.944l0.122-0.403l0.2-0.357l5.253-5.782
		l1.021-0.682l0.535-0.169l0.666-0.039l1.195,0.195l0.576,0.292l0.38,0.364l0.157,0.405l0.232,0.858l0.163,0.409l0.245,0.318
		l0.825,0.11l10.138-0.572l1.608-0.572l2.278-1.302l2.259-1.652l1.133-1.235l1.952-2.634l0.898-0.899l0.574-0.26l0.832-0.214
		l1.762-0.201l0.886-0.189l0.658-0.201l0.322-0.254l0.23-0.338l0.593-1.685l0.073-0.429l-0.206-1.334l0.062-0.461l0.157-0.409
		l0.647-1.114l0.084-0.397l-0.004-0.292l-0.239-0.169l-4.09-1.027l-0.832-0.306l-0.692-0.483l-2.194-2.381l-3.147-2.609
		l-0.327-0.169l-0.38-0.026l-0.301,0.026l-3.097,0.624l-0.477,0.013l-0.439-0.117l-0.357-0.189l-0.325-0.28l-1.855-2.167
		l-0.331-0.241l-0.426-0.169l-0.464-0.091h-1.012l-0.995,0.098l-0.989-0.13l-0.43-0.137l-0.344-0.163l-0.213-0.163l-0.06-0.273
		l0.028-0.412l0.09-0.462l0.331-0.806l0.12-0.416v-1.459l0.075-0.481l0.116-0.41l0.518-0.594l0.206-0.364l0.254-0.904l0.161-0.416
		l0.206-0.377l0.135-0.444l0.088-0.501l0.125-0.436l0.636-0.254l1.088,0.007l3.925,0.618l1.229-0.143l0.494-0.247l0.694-0.546
		l0.57-0.124l2.048,0.039l0.684-0.111l0.632-0.039l0.479,0.085l0.926,0.553l0.574,0.182l0.789,0.078l3.11-0.111l0.469-0.098
		l0.849-0.312l1.831-0.455l0.552-0.026l0.561,0.091l0.688,0.397l0.314,0.449l0.163,0.52l0.204,3.678l0.198,0.949l0.163,0.39
		l0.23,0.338l0.748,0.392l1.33,0.423l1.838,1.034l0.982,0.795l0.774,0.93l0.294,0.28l0.417,0.227l0.524,0.085l0.808-0.15l0.55-0.156
		l1.724-0.663l0.445-0.111l0.509-0.033l0.578,0.065l1.279,0.598l0.666,0.182l0.772,0.059l1.371-0.169l0.66-0.26l0.484-0.306
		l0.567-0.598l1.294-2.141l0.868-0.867l0.716-0.429l0.428-0.15l0.6-0.072l1.93-0.033l0.819-0.15l0.909-0.319l0.271-0.475
		l0.103-0.509l-0.056-0.507l-0.473-1.816l-0.641-1.632l-0.114-0.429l-0.006-0.438l0.116-0.325l0.11-0.195l0.23-0.26l2.454-1.791
		l3.357-2.005l0.636-0.514l1.014-1.294l2.719-4.356l0.574-0.611l0.312-0.262l0.72-0.41l0.419-0.169l0.421-0.124l0.458-0.072
		l0.6,0.091l0.748,0.26l1.193,0.731l0.569,0.494l0.4,0.442l0.38,0.748l0.602,1.667l0.151,0.885l0.176,4.069l0.196,0.813l0.31,0.783
		l0.193,0.371l0.477,0.676l0.447,0.52l0.445,0.379l0.649,0.228l0.937,0.241l1.947,0.254l1.795,0.052l1.842-0.28l1.61,0.007
		l0.471-0.098l0.462-0.156l0.385-0.169l0.428-0.13l0.905-0.132l0.451-0.134l0.529-0.1l0.767-0.039l1.253-0.267l0.939-0.065
		l1.545-0.397l0.333-0.241l0.234-0.338l0.31-0.865l0.198-0.386l0.249-0.312l0.593-0.559l1.044-0.702l0.258-0.299l0.46-0.698
		l0.251-0.293l0.526-0.169l0.737,0.007l2.379,0.338l0.415,0.169l0.737,0.763l0.413,0.221l0.651-0.007l1.014-0.208l0.426-0.02
		l0.413,0.137l0.638,0.819l0.367,0.325l0.428,0.182l0.787-0.007l1.103-0.124l0.95,0.059l0.406-0.059l0.578-0.488l0.408-0.202
		l0.565-0.072l0.731,0.02l0.55-0.059l0.533,0.078l0.875,0.52l0.742,0.319l1.143,0.293l0.613,0.072l0.436,0.169l0.125,0.321
		l0.245,0.299l0.348,0.13l0.499-0.156l0.335-0.28l0.284-0.347l0.391-0.78l0.219-0.241l0.325-0.065l0.518,0.429l0.606,0.098
		l0.469-0.072l1.234-1.106l0.735-0.41l1.7-0.581l0.38-0.195l0.318-0.234l0.666,0.117l0.971,0.559l2.012,1.7l1.453,1.505l1.904,3.111
		l1.487,3.62l0.855,1.424l0.533,0.598l0.525,0.36l0.724,0.371l2.543,0.8l8.679,1.536l11.733,4.321l0.449,0.208l0.462,0.286
		l1.621,2.082L468.5,364.598z"/>
	<path class="st0" d="M383.18,471.569l1.507-2.971l-0.032-1.13l-0.258-0.305l-0.297-0.194l-0.406-0.019l-0.353,0.065l-0.303-0.013
		l-0.165-0.253l-0.028-0.35l0.112-0.389l0.507-1.098l0.108-0.454v-0.071l0.079-0.577l0.63-1.74l0.709-1.18l0.237-0.534l0.578-1.844
		l0.09-0.493l0.135-0.467l0.284-0.331l1.027-0.292l0.31-0.285l0.03-0.519l-0.213-0.339l-0.355-0.24l-0.361-0.11l-0.194-0.266
		l0.056-0.811l-0.129-0.339l-0.06-0.37l0.202-0.46l0.941-1.595l0.198-0.657l0.161-1.031v-0.512l-0.052-0.476l-0.148-0.422
		l-0.217-0.344l-0.256-0.305l-0.129-0.266l0.165-0.337l1.861-1.066l0.645-0.499l0.342-0.389l0.365-0.506l0.458-0.936l0.217-0.642
		l0.194-1.142l0.967-3.65l1.264-3.352l3.566-5.617l10.787-11.186l0.4-0.552l0.195-0.376l0.469-0.669l2.336-2.326l0.533-0.671
		l0.297-0.545l0.026-0.286l-0.022-0.441l-0.217-0.885l-0.374-0.766l-0.445-0.688l-0.273-0.312l-0.29-0.273l-1.943-1.508
		l-0.585-0.571l-0.512-0.651l-0.419-0.714l-0.157-0.402l-0.092-0.454l-0.028-0.489l0.043-0.493l0.228-0.909l0.327-0.825l0.537-0.528
		l0.847-0.604l2.016-0.961l1.823-0.677l6.003-0.844l0.426-0.143l0.533-0.331l0.686-0.591l14.948-20.954l0.939-0.808l1.262-0.266
		l11.114-0.208l0.791-0.234l0.911-1.014l0.262-0.418l0.572-0.585l0.625-0.37l0.931-0.409l4.135-1.386l0.997-0.604l1.023-0.845
		l0.529-0.535l1.642-2.079l0.578-0.568l0.638-0.5l1.498-0.533l4.78-0.86l21.027,0.821l0.928,0.234l0.838,0.325l1.823,0.942
		l0.98,0.392l0.696,0.13l0.58-0.013l0.464-0.104l1.212-0.503l1.5-0.903l1.277-0.546l0.593-0.052l0.555,0.033l3.912,1.384
		l0.361,4.488l-0.206,1.49l-0.219,0.351l-0.632,1.438l-0.529,1.67l-0.155,0.944v0.708l0.142,0.422l0.348,1.938l0.194,2.38
		l-0.077,1.321l-0.155,0.877l-0.206,0.435l-0.709,1.003l-1.165,1.137l-0.322,0.247l-1.47,1.386l-0.4,0.675l-0.451,0.981
		l-0.774,2.186l-0.232,1.085l-0.052,0.825l0.271,0.898l0.374,0.747l0.258,0.312l0.309,0.266l0.361,0.214l1.264,0.442l0.8,0.379
		l0.649,0.506l0.542,0.597l0.451,0.716l0.335,0.786l0.477,3.593l-0.052,0.95l-0.142,0.669l-0.258,0.325l-0.284,0.266l-3.28,1.911
		l-0.335,0.26l-1.122,1.158l-0.245,0.318l-0.284,0.292l-0.245,0.331l-0.271,0.299l-0.245,0.324l-0.391,0.963l-1.315,4.924
		l-0.258,1.566l-0.039,1.051l0.245,0.305l0.426,0.123l2.454-0.175l0.426,0.078l0.413,0.136l0.374,0.221l0.284,0.285l0.206,0.372
		l0.232,0.883l0.335,1.943l0.129,0.448l0.142,0.389l0.438,0.714l0.585,0.573l1.057,0.668l0.374,0.396l0.361,0.558l0.335,1.177
		l0.039,0.759l-0.064,0.69l-2.403,7.318l-0.193,0.383l-0.451,0.701l-0.258,0.311l-0.271,0.279l-1.328,0.988l-1.406,0.824
		l-3.731,1.436l-0.37,0.476l0.447,0.884l0.567,1.602l0.176,1.472l-0.408,1.053l-0.602,1.105l-0.288,1.49l0.09,1.412l0.516,0.865
		l3.925,2.981l1.483,0.454l5.704-0.143l1.449,0.199l1.062,0.627l1.763,1.465l2.893,1.707l0.335,0.592l0.129,0.674l-0.219,7.663
		l-3.602,4.101l-1.277,1.199l-1.096,0.681l-0.469,0.158l-0.658,0.045l-0.516-0.078l-0.451-0.177l-0.335-0.24l-0.864-0.823
		l-0.529-0.603l-1.096-1.701l-0.262-0.344l-0.361-0.35l-2.283-0.981l-0.361-0.214l-0.671-0.486l-0.593-0.551l-0.482-0.655
		l-1.109-2.317l-0.31-0.359l-0.529-0.337l-1.07-0.104h-1.156l-0.976,0.194l-0.606,0.182l-3.005,2.031l-0.984,0.482l-0.645,0.207
		l-0.284,0.032l-0.286-0.119l-0.563-0.668l-0.415-0.318l-0.533-0.285l-0.903-0.324l-0.486,0.097l-0.312,0.305l-1.365,4.879
		l-0.329,0.499l-0.63,0.512l-3.501,1.428l-0.445,0.285l-0.318,0.389l-0.922,1.934l-0.896,3.232l-0.795,1.627l-0.213,0.344
		l-0.251,0.326l-0.423,0.421l-0.6,0.473l-1.165,0.7l-0.765,0.207l-0.641,0.045l-0.873-0.298l-0.709-0.428l-0.314-0.266l-0.288-0.292
		l-0.434-0.311l-0.55-0.246l-0.956-0.138l-0.54,0.132l-0.443,0.227l-1.578,1.901l-0.494,0.376l-0.703,0.434l-1.421,0.693
		l-0.812,0.272l-0.677,0.155l-2.078-0.078l-0.838-0.123l-1.511-0.583l-0.393-0.188l-1.281-0.467l-0.765-0.428l-0.288-0.294
		l-0.161-0.376l0.002-1.439l-0.524-0.324l-0.933-0.112l-3.587,0.274l-0.84,0.149l-0.714,0.24l-0.202,0.11l-0.219,0.162l-0.129,0.266
		l-0.095,0.259l-0.352,1.83l-0.011,0.719l0.034,0.46l0.069,0.365l0.187,0.635l-3.738-1.46l-2.229-0.356l-14.044,1.13l-1.78-0.013
		l-0.959-0.242l-0.426-0.175l-8.09-1.763l-1.623-0.162l-0.939,0.117l-1.019,0.227l-2.066,0.253l-0.748-0.065l-0.544-0.181
		l-0.812-0.598l-0.645-0.35l-1.24-0.415l-0.772-0.162l-0.595-0.065l-7.181,0.104l-0.752-0.071l-0.529-0.136l-0.206-0.156
		l-0.438-0.48l-1.214-2.089l-2.594-5.639l-0.224-0.376l-0.396-0.35l-2.439-0.914L383.18,471.569z"/>
</g>
<g id="Copyright">
	<text transform="matrix(1 0 0 1 681.6426 577.5916)" class="st1 st2"> Vemaps.com</text>
</g>
</svg>
